<?xml version="1.0" encoding="UTF-8" standalone="no"?>
<!-- Created with Inkscape (http://www.inkscape.org/) -->

<svg
   xmlns:dc="http://purl.org/dc/elements/1.1/"
   xmlns:cc="http://creativecommons.org/ns#"
   xmlns:rdf="http://www.w3.org/1999/02/22-rdf-syntax-ns#"
   xmlns:svg="http://www.w3.org/2000/svg"
   xmlns="http://www.w3.org/2000/svg"
   xmlns:sodipodi="http://sodipodi.sourceforge.net/DTD/sodipodi-0.dtd"
   xmlns:inkscape="http://www.inkscape.org/namespaces/inkscape"
   width="256px"
   height="256px"
   viewBox="0 0 256 256"
   version="1.1"
   id="SVGRoot"
   inkscape:version="0.92.5 (2060ec1f9f, 2020-04-08)"
   sodipodi:docname="omvextras2.svg">
  <defs
     id="defs5101" />
  <sodipodi:namedview
     id="base"
     pagecolor="#ffffff"
     bordercolor="#666666"
     borderopacity="1.0"
     inkscape:pageopacity="0.0"
     inkscape:pageshadow="2"
     inkscape:zoom="2.8284271"
     inkscape:cx="152.1004"
     inkscape:cy="111.25468"
     inkscape:document-units="px"
     inkscape:current-layer="layer1"
     showgrid="false"
     inkscape:window-width="1920"
     inkscape:window-height="1031"
     inkscape:window-x="0"
     inkscape:window-y="25"
     inkscape:window-maximized="1"
     inkscape:grid-bbox="true" />
  <metadata
     id="metadata5104">
    <rdf:RDF>
      <cc:Work
         rdf:about="">
        <dc:format>image/svg+xml</dc:format>
        <dc:type
           rdf:resource="http://purl.org/dc/dcmitype/StillImage" />
        <dc:title />
      </cc:Work>
    </rdf:RDF>
  </metadata>
  <g
     inkscape:label="Layer 1"
     inkscape:groupmode="layer"
     id="layer1">
    <rect
       style="fill:#626262;fill-opacity:1;stroke-width:1.76413214"
       id="rect5659"
       width="69.856071"
       height="62.995205"
       x="180.36963"
       y="188.07274" />
    <rect
       style="fill:#626262;fill-opacity:1;stroke-width:1.76413214"
       id="rect5659-6"
       width="69.856071"
       height="62.995205"
       x="95.880661"
       y="188.46405" />
    <rect
       style="fill:#626262;fill-opacity:1;stroke-width:1.76413214"
       id="rect5659-7"
       width="69.856071"
       height="62.995205"
       x="179.65414"
       y="117.72874" />
    <rect
       style="fill:#626262;fill-opacity:1;stroke-width:1.76413214"
       id="rect5659-5"
       width="69.856071"
       height="62.995205"
       x="95.507698"
       y="117.55147" />
    <rect
       style="fill:#626262;fill-opacity:1;stroke-width:1.76413214"
       id="rect5659-3"
       width="69.856071"
       height="62.995205"
       x="9.4350224"
       y="188.26839" />
    <path
       style="fill:none;stroke:#000000;stroke-width:6.34320498;stroke-linecap:butt;stroke-linejoin:miter;stroke-miterlimit:4;stroke-dasharray:none;stroke-opacity:1"
       d="m 105.91244,102.5209 8.10404,-30.460745 h 45.09171 l -10.5976,30.799205 h -42.59815 l -6.857262,-40.952788 40.312402,-0.338454 1.87016,10.153583"
       id="path5716"
       inkscape:connector-curvature="0" />
    <path
       style="fill:#626262;fill-opacity:1;stroke-width:0.24634372"
       d="m 106.71075,101.96247 c 0.13056,-0.3559 7.75513,-29.03028 7.75513,-29.165409 0,-0.04911 9.82265,-0.0893 21.82812,-0.0893 h 21.82812 l -0.14424,0.554273 c -0.0793,0.30485 -2.34186,6.928416 -5.02783,14.719037 l -4.8836,14.164759 -20.73459,0.063 c -16.55474,0.0503 -20.71172,7.9e-4 -20.62111,-0.24634 z"
       id="path830"
       inkscape:connector-curvature="0" />
    <path
       style="fill:#000000;fill-opacity:1;stroke-width:0.19779029"
       d="m 106.95377,101.72586 c 0,-0.18012 0.76407,-3.184064 1.69791,-6.675423 0.93386,-3.491359 2.62699,-9.859649 3.76253,-14.151758 1.13554,-4.292108 2.17385,-7.873221 2.30734,-7.958031 0.24449,-0.155313 43.26212,-0.232025 43.26212,-0.07715 0,0.109009 -4.66949,13.815778 -7.63632,22.415539 l -2.33707,6.774313 h -20.52825 c -18.97388,0 -20.52826,-0.0248 -20.52826,-0.32749 z"
       id="path852"
       inkscape:connector-curvature="0" />
    <path
       style="fill:#000000;fill-opacity:1;stroke-width:0.46750125"
       d="m 95.806999,149.05065 v -31.32259 h 34.595091 34.59509 v 31.32259 31.32257 H 130.40209 95.806999 Z"
       id="path858"
       inkscape:connector-curvature="0" />
    <path
       style="fill:#000000;fill-opacity:1;stroke-width:0.46750125"
       d="m 179.95723,149.05065 v -31.32259 h 34.59509 34.59511 v 31.32259 31.32257 h -34.59511 -34.59509 z"
       id="path860"
       inkscape:connector-curvature="0" />
    <path
       style="fill:#000000;fill-opacity:1;stroke-width:0.46750125"
       d="m 180.42474,219.72085 v -31.32258 h 34.82883 34.82885 v 31.32258 31.32259 h -34.82885 -34.82883 z"
       id="path862"
       inkscape:connector-curvature="0" />
    <path
       style="fill:#000000;fill-opacity:1;stroke-width:0.46750125"
       d="m 96.274509,219.9546 v -31.08883 h 34.595091 34.59509 v 31.08883 31.08884 H 130.8696 96.274509 Z"
       id="path864"
       inkscape:connector-curvature="0" />
    <path
       style="fill:#000000;fill-opacity:1;stroke-width:0.46750125"
       d="M 9.7867687,219.72085 V 188.39827 H 44.381863 78.976956 v 31.32258 31.32259 H 44.381863 9.7867687 Z"
       id="path866"
       inkscape:connector-curvature="0" />
    <path
       style="fill:none;stroke:#000000;stroke-width:6.34320498;stroke-linecap:butt;stroke-linejoin:miter;stroke-miterlimit:4;stroke-dasharray:none;stroke-opacity:1"
       d="m 190.7322,101.54159 8.10404,-30.460747 h 45.09171 l -10.5976,30.799207 H 190.7322 l -6.85727,-40.952789 40.31241,-0.338454 1.87016,10.153582"
       id="path5716-3"
       inkscape:connector-curvature="0" />
    <path
       style="fill:#626262;fill-opacity:1;stroke-width:0.24634372"
       d="m 191.53051,100.98317 c 0.13056,-0.35591 7.75513,-29.030292 7.75513,-29.165422 0,-0.0491 9.82265,-0.0893 21.82812,-0.0893 h 21.82812 l -0.14424,0.55427 c -0.0793,0.30485 -2.34186,6.92842 -5.02783,14.71904 l -4.8836,14.164762 -20.73459,0.063 c -16.55474,0.0503 -20.71172,7.9e-4 -20.62111,-0.24634 z"
       id="path830-6"
       inkscape:connector-curvature="0" />
    <path
       style="fill:#000000;fill-opacity:1;stroke-width:0.19779029"
       d="m 191.77353,100.74655 c 0,-0.18012 0.76407,-3.184062 1.69791,-6.675422 0.93386,-3.49136 2.62699,-9.85965 3.76253,-14.15176 1.13554,-4.29211 2.17385,-7.87322 2.30734,-7.95803 0.24449,-0.15531 43.26212,-0.23203 43.26212,-0.0772 0,0.10901 -4.66949,13.81578 -7.63632,22.41554 l -2.33707,6.774312 h -20.52825 c -18.97388,0 -20.52826,-0.0248 -20.52826,-0.32749 z"
       id="path852-7"
       inkscape:connector-curvature="0" />
    <path
       style="fill:none;stroke:#000000;stroke-width:6.34320498;stroke-linecap:butt;stroke-linejoin:miter;stroke-miterlimit:4;stroke-dasharray:none;stroke-opacity:1"
       d="m 20.319461,101.79821 8.10404,-30.46075 h 45.09171 l -10.5976,30.79921 h -42.59815 l -6.857262,-40.95279 40.312402,-0.33845 1.87016,10.15358"
       id="path5716-5"
       inkscape:connector-curvature="0" />
    <path
       style="fill:#626262;fill-opacity:1;stroke-width:0.24634372"
       d="m 21.117771,101.23978 c 0.13056,-0.3559 7.75513,-29.03028 7.75513,-29.16541 0,-0.0491 9.82265,-0.0893 21.82812,-0.0893 h 21.82812 l -0.14424,0.55427 c -0.0793,0.30485 -2.34186,6.92842 -5.02783,14.71904 l -4.8836,14.16476 -20.73459,0.063 c -16.55474,0.0503 -20.71172,7.9e-4 -20.62111,-0.24634 z"
       id="path830-3"
       inkscape:connector-curvature="0" />
    <path
       style="fill:#000000;fill-opacity:1;stroke-width:0.19779029"
       d="m 21.360791,101.00317 c 0,-0.18013 0.76407,-3.18407 1.69791,-6.67542 0.93386,-3.49136 2.62699,-9.85965 3.76253,-14.15176 1.13554,-4.29211 2.17385,-7.87322 2.30734,-7.95803 0.24449,-0.15532 43.26212,-0.23203 43.26212,-0.0772 0,0.10901 -4.66949,13.81577 -7.63632,22.41554 l -2.33707,6.77431 h -20.52825 c -18.97388,0 -20.52826,-0.0248 -20.52826,-0.32749 z"
       id="path852-5"
       inkscape:connector-curvature="0" />
    <path
       style="fill:none;stroke:#000000;stroke-width:6.34320498;stroke-linecap:butt;stroke-linejoin:miter;stroke-miterlimit:4;stroke-dasharray:none;stroke-opacity:1"
       d="m 104.92963,48.16543 8.10404,-30.460741 h 45.09171 L 147.52778,48.50389 H 104.92963 L 98.072373,7.551106 138.38477,7.212652 l 1.87016,10.153583"
       id="path5716-6"
       inkscape:connector-curvature="0" />
    <path
       style="fill:#626262;fill-opacity:1;stroke-width:0.24634372"
       d="m 105.72794,47.60701 c 0.13056,-0.3559 7.75513,-29.030286 7.75513,-29.165415 0,-0.04911 9.82265,-0.0893 21.82812,-0.0893 h 21.82812 l -0.14424,0.554273 c -0.0793,0.30485 -2.34186,6.928416 -5.02783,14.719037 l -4.8836,14.164755 -20.73459,0.063 c -16.55474,0.0503 -20.71172,7.9e-4 -20.62111,-0.24634 z"
       id="path830-2"
       inkscape:connector-curvature="0" />
    <path
       style="fill:#000000;fill-opacity:1;stroke-width:0.19779029"
       d="m 105.97096,47.37039 c 0,-0.18012 0.76407,-3.18406 1.69791,-6.675419 0.93386,-3.491359 2.62699,-9.859649 3.76253,-14.151758 1.13554,-4.292108 2.17385,-7.873221 2.30734,-7.958031 0.24449,-0.155313 43.26212,-0.232025 43.26212,-0.07715 0,0.109009 -4.66949,13.815778 -7.63632,22.415539 l -2.33707,6.774309 h -20.52825 c -18.97388,0 -20.52826,-0.0248 -20.52826,-0.32749 z"
       id="path852-9"
       inkscape:connector-curvature="0" />
    <path
       style="fill:none;stroke:#000000;stroke-width:6.34320498;stroke-linecap:butt;stroke-linejoin:miter;stroke-miterlimit:4;stroke-dasharray:none;stroke-opacity:1"
       d="m 189.05453,48.04411 8.10404,-30.460742 h 45.09171 l -10.5976,30.799202 h -42.59815 l -6.85727,-40.952784 40.31241,-0.338454 1.87016,10.153582"
       id="path5716-1"
       inkscape:connector-curvature="0" />
    <path
       style="fill:#626262;fill-opacity:1;stroke-width:0.24634372"
       d="m 189.85284,47.48569 c 0.13056,-0.35591 7.75513,-29.030287 7.75513,-29.165416 0,-0.04911 9.82265,-0.0893 21.82812,-0.0893 h 21.82812 l -0.14424,0.554273 c -0.0793,0.30485 -2.34186,6.928416 -5.02783,14.719037 l -4.8836,14.164756 -20.73459,0.063 c -16.55474,0.0503 -20.71172,7.9e-4 -20.62111,-0.24634 z"
       id="path830-27"
       inkscape:connector-curvature="0" />
    <path
       style="fill:#000000;fill-opacity:1;stroke-width:0.19779029"
       d="m 190.09586,47.24907 c 0,-0.18012 0.76407,-3.18406 1.69791,-6.67542 0.93386,-3.491359 2.62699,-9.859649 3.76253,-14.151758 1.13554,-4.292108 2.17385,-7.873221 2.30734,-7.958031 0.24449,-0.155313 43.26212,-0.232025 43.26212,-0.07715 0,0.109009 -4.66949,13.815778 -7.63632,22.415539 l -2.33707,6.77431 h -20.52825 c -18.97388,0 -20.52826,-0.0248 -20.52826,-0.32749 z"
       id="path852-0"
       inkscape:connector-curvature="0" />
  </g>
</svg>
